<?xml version="1.0" standalone="no"?>
<!DOCTYPE svg PUBLIC "-//W3C//DTD SVG 20010904//EN"
 "http://www.w3.org/TR/2001/REC-SVG-20010904/DTD/svg10.dtd">
<svg version="1.0" xmlns="http://www.w3.org/2000/svg"
 width="512.000000pt" height="512.000000pt" viewBox="0 0 512.000000 512.000000"
 preserveAspectRatio="xMidYMid meet">
<metadata>
Created by potrace 1.11, written by Peter Selinger 2001-2013
</metadata>
<g transform="translate(0.000000,512.000000) scale(0.100000,-0.100000)"
fill="#000000" stroke="none">
<path d="M2101 3668 c-23 -139 -43 -253 -44 -255 -3 -2 -160 -11 -342 -19 -82
-3 -152 -7 -154 -10 -7 -7 -6 -476 1 -487 5 -9 74 -12 235 -12 l228 0 2 -360
c2 -466 17 -567 112 -750 42 -83 149 -193 234 -244 134 -79 322 -120 543 -119
115 1 168 6 362 34 52 7 261 60 269 67 3 3 -21 113 -53 244 -47 188 -62 237
-74 234 -8 -2 -46 -12 -84 -22 -150 -39 -326 -43 -436 -10 -84 26 -146 83
-175 163 -19 49 -20 80 -20 408 l0 355 375 1 c206 1 380 2 385 3 7 1 10 94 10
261 l0 260 -387 0 -388 0 0 255 0 255 -278 0 -278 0 -43 -252z"/>
</g>
</svg>
